<svg width="51" height="51" viewBox="0 0 51 51" fill="none" xmlns="http://www.w3.org/2000/svg">
<path d="M13.082 14.1315V10.1984C13.082 4.58202 18.6197 0 25.4984 0C32.3772 0 37.9149 4.58202 37.9149 10.1984V14.1315H46.4972C46.8904 14.1317 47.2688 14.2499 47.5563 14.4623C47.8439 14.6747 48.0191 14.9654 48.0467 15.276L50.9969 49.6903C51.0228 50.0154 50.8855 50.3355 50.6148 50.5808C50.3441 50.8261 49.962 50.9768 49.5516 51H1.54957C1.1386 51 0.744461 50.8707 0.453859 50.6406C0.163258 50.4105 0 50.0983 0 49.7729V49.6903L2.95015 15.276C2.97658 14.9647 3.15129 14.673 3.43894 14.4598C3.7266 14.2466 4.10574 14.1278 4.49973 14.1276L13.082 14.1315ZM17.7406 14.1315H33.2612V10.1984C33.2612 6.58394 29.7846 3.68528 25.4984 3.68528C21.2123 3.68528 17.7406 6.58394 17.7406 10.1984V14.1315ZM4.87222 47.3187H46.1247L43.6016 17.8207H7.40021L4.87222 47.3187Z" fill="black"/>
</svg>
