<svg width="600" height="126" viewBox="0 0 600 126" fill="none" xmlns="http://www.w3.org/2000/svg">
<path d="M64.248 10.376C63.9067 13.3627 63.6507 16.264 63.48 19.08C63.3947 21.896 63.352 24.0293 63.352 25.48C63.352 27.016 63.3947 28.5093 63.48 29.96C63.5653 31.3253 63.6507 32.4773 63.736 33.416H60.792C60.28 28.3813 59.5547 24.4133 58.616 21.512C57.6773 18.5253 56.056 16.4347 53.752 15.24C51.5333 13.96 48.1627 13.32 43.64 13.32H33.016C30.1147 13.32 27.896 13.576 26.36 14.088C24.9093 14.5147 23.928 15.496 23.416 17.032C22.904 18.4827 22.648 20.7867 22.648 23.944V87.432C22.648 90.504 22.904 92.808 23.416 94.344C23.928 95.88 24.9093 96.904 26.36 97.416C27.896 97.8427 30.1147 98.056 33.016 98.056H42.36C47.736 98.056 51.7893 97.3307 54.52 95.88C57.336 94.4293 59.3413 92.0827 60.536 88.84C61.816 85.512 62.7547 81.032 63.352 75.4H66.296C66.04 77.704 65.912 80.776 65.912 84.616C65.912 86.2373 65.9547 88.584 66.04 91.656C66.2107 94.6427 66.4667 97.7573 66.808 101C62.456 100.829 57.5493 100.744 52.088 100.744C46.6267 100.659 41.7627 100.616 37.496 100.616C35.6187 100.616 33.1867 100.616 30.2 100.616C27.2987 100.616 24.1413 100.659 20.728 100.744C17.3147 100.744 13.8587 100.787 10.36 100.872C6.86133 100.872 3.53333 100.915 0.376 101V98.44C3.27733 98.2693 5.45333 97.928 6.904 97.416C8.44 96.904 9.464 95.88 9.976 94.344C10.488 92.808 10.744 90.504 10.744 87.432V23.944C10.744 20.7867 10.488 18.4827 9.976 17.032C9.464 15.496 8.44 14.472 6.904 13.96C5.45333 13.3627 3.27733 13.0213 0.376 12.936V10.376C3.53333 10.4613 6.86133 10.5467 10.36 10.632C13.8587 10.632 17.3147 10.6747 20.728 10.76C24.1413 10.76 27.2987 10.76 30.2 10.76C33.1867 10.76 35.6187 10.76 37.496 10.76C41.4213 10.76 45.8587 10.76 50.808 10.76C55.8427 10.6747 60.3227 10.5467 64.248 10.376ZM42.232 54.152C42.232 54.152 42.232 54.5787 42.232 55.432C42.232 56.2853 42.232 56.712 42.232 56.712H18.808C18.808 56.712 18.808 56.2853 18.808 55.432C18.808 54.5787 18.808 54.152 18.808 54.152H42.232ZM45.944 37.256C45.6027 42.12 45.432 45.832 45.432 48.392C45.5173 50.952 45.56 53.2987 45.56 55.432C45.56 57.5653 45.6027 59.912 45.688 62.472C45.7733 65.032 45.9867 68.744 46.328 73.608H43.384C43.0427 70.8773 42.616 68.232 42.104 65.672C41.6773 63.0267 40.6533 60.8933 39.032 59.272C37.496 57.5653 34.8507 56.712 31.096 56.712V54.152C33.912 54.152 36.0453 53.5973 37.496 52.488C39.032 51.2933 40.1413 49.8 40.824 48.008C41.5067 46.216 41.976 44.3813 42.232 42.504C42.488 40.5413 42.744 38.792 43 37.256H45.944ZM136.232 35.08V37.64C134.611 37.8107 133.117 38.536 131.752 39.816C130.387 41.096 129.107 43.3573 127.912 46.6L106.92 101.64H104.744L81.192 44.936C79.5707 41.608 77.9493 39.6027 76.328 38.92C74.792 38.152 73.512 37.768 72.488 37.768V35.08C74.3653 35.336 76.328 35.5493 78.376 35.72C80.424 35.8053 82.6427 35.848 85.032 35.848C87.6773 35.848 90.4507 35.7627 93.352 35.592C96.3387 35.4213 99.112 35.2507 101.672 35.08V37.768C99.5387 37.768 97.6187 37.9387 95.912 38.28C94.2907 38.536 93.2667 39.432 92.84 40.968C92.4133 42.4187 92.9253 44.936 94.376 48.52L110.12 87.56L109.352 87.816L123.944 49.672C125.053 46.856 125.48 44.6373 125.224 43.016C125.053 41.3093 124.2 40.0293 122.664 39.176C121.128 38.3227 118.824 37.8107 115.752 37.64V35.08C117.288 35.1653 118.611 35.2507 119.72 35.336C120.829 35.336 121.896 35.3787 122.92 35.464C124.029 35.464 125.224 35.464 126.504 35.464C128.467 35.464 130.216 35.4213 131.752 35.336C133.373 35.2507 134.867 35.1653 136.232 35.08ZM106.92 101.64L102.568 112.776C101.715 114.909 100.819 116.701 99.88 118.152C99.0267 119.603 98.088 120.797 97.064 121.736C95.6987 123.016 94.0773 123.869 92.2 124.296C90.3227 124.808 88.616 125.064 87.08 125.064C85.4587 125.064 83.9653 124.765 82.6 124.168C81.32 123.571 80.296 122.675 79.528 121.48C78.76 120.371 78.376 119.005 78.376 117.384C78.376 115.336 78.9733 113.672 80.168 112.392C81.3627 111.197 83.0267 110.6 85.16 110.6C86.952 110.6 88.488 111.112 89.768 112.136C91.048 113.16 91.688 114.653 91.688 116.616C91.688 118.067 91.3467 119.261 90.664 120.2C89.9813 121.139 89.1707 121.864 88.232 122.376C88.4027 122.461 88.5307 122.504 88.616 122.504C88.7867 122.504 88.9147 122.504 89 122.504C91.304 122.504 93.352 121.693 95.144 120.072C96.936 118.536 98.5147 116.019 99.88 112.52L104.488 100.616L106.92 101.64ZM171.191 33.288C178.7 33.288 184.546 35.592 188.727 40.2C192.994 44.7227 195.127 51.8053 195.127 61.448H149.943L149.815 59.016H182.839C183.01 54.8347 182.668 50.9947 181.815 47.496C180.962 43.912 179.596 41.0533 177.719 38.92C175.927 36.7867 173.58 35.72 170.679 35.72C166.754 35.72 163.255 37.6827 160.183 41.608C157.196 45.5333 155.404 51.7627 154.807 60.296L155.191 60.808C155.02 62.088 154.892 63.496 154.807 65.032C154.722 66.568 154.679 68.104 154.679 69.64C154.679 75.4427 155.618 80.4347 157.495 84.616C159.372 88.7973 161.804 91.9973 164.791 94.216C167.863 96.3493 171.02 97.416 174.263 97.416C176.823 97.416 179.255 97.032 181.559 96.264C183.863 95.4107 185.996 94.0453 187.959 92.168C189.922 90.2907 191.628 87.7733 193.079 84.616L195.639 85.64C194.7 88.456 193.164 91.1867 191.031 93.832C188.898 96.4773 186.21 98.6533 182.967 100.36C179.724 101.981 175.97 102.792 171.703 102.792C165.559 102.792 160.268 101.384 155.831 98.568C151.479 95.752 148.108 91.8693 145.719 86.92C143.415 81.8853 142.263 76.1253 142.263 69.64C142.263 62.1307 143.458 55.688 145.847 50.312C148.236 44.8507 151.607 40.6693 155.959 37.768C160.311 34.7813 165.388 33.288 171.191 33.288ZM228.389 125.064C223.866 125.064 219.6 124.595 215.589 123.656C211.578 122.717 208.336 121.224 205.861 119.176C203.472 117.213 202.277 114.696 202.277 111.624C202.277 108.637 203.472 106.077 205.861 103.944C208.25 101.811 211.493 100.189 215.589 99.08L216.357 101.128C214.48 101.725 212.986 102.92 211.877 104.712C210.768 106.504 210.213 108.509 210.213 110.728C210.213 114.653 212.005 117.64 215.589 119.688C219.258 121.821 223.994 122.888 229.797 122.888C233.637 122.888 237.392 122.376 241.061 121.352C244.73 120.413 247.76 118.792 250.149 116.488C252.538 114.184 253.733 111.155 253.733 107.4C253.733 104.584 252.709 102.28 250.661 100.488C248.698 98.6107 244.773 97.672 238.885 97.672H229.413C226.682 97.672 224.037 97.4587 221.477 97.032C218.917 96.6053 216.826 95.7093 215.205 94.344C213.584 92.9787 212.773 90.888 212.773 88.072C212.773 85.1707 213.968 82.3973 216.357 79.752C218.746 77.0213 223.141 74.248 229.541 71.432L231.077 72.584C228.176 74.12 225.658 75.6987 223.525 77.32C221.392 78.856 220.325 80.6907 220.325 82.824C220.325 85.5547 222.373 86.92 226.469 86.92H242.469C246.053 86.92 249.338 87.432 252.325 88.456C255.397 89.48 257.872 91.1013 259.749 93.32C261.626 95.5387 262.565 98.44 262.565 102.024C262.565 106.035 261.285 109.789 258.725 113.288C256.165 116.787 252.325 119.603 247.205 121.736C242.17 123.955 235.898 125.064 228.389 125.064ZM229.029 73.736C224.848 73.736 221.05 73.0533 217.637 71.688C214.224 70.2373 211.536 68.0187 209.573 65.032C207.61 62.0453 206.629 58.2053 206.629 53.512C206.629 48.8187 207.61 44.9787 209.573 41.992C211.536 39.0053 214.224 36.8293 217.637 35.464C221.05 34.0133 224.848 33.288 229.029 33.288C233.296 33.288 237.093 34.0133 240.421 35.464C243.834 36.8293 246.522 39.0053 248.485 41.992C250.448 44.9787 251.429 48.8187 251.429 53.512C251.429 58.2053 250.448 62.0453 248.485 65.032C246.522 68.0187 243.834 70.2373 240.421 71.688C237.093 73.0533 233.296 73.736 229.029 73.736ZM229.029 71.432C232.272 71.432 234.789 70.152 236.581 67.592C238.458 65.032 239.397 60.3387 239.397 53.512C239.397 46.6853 238.458 41.992 236.581 39.432C234.789 36.872 232.272 35.592 229.029 35.592C225.872 35.592 223.354 36.872 221.477 39.432C219.6 41.992 218.661 46.6853 218.661 53.512C218.661 60.3387 219.6 65.032 221.477 67.592C223.354 70.152 225.872 71.432 229.029 71.432ZM247.461 43.912L245.157 43.016C246.352 40.1147 248.4 37.5547 251.301 35.336C254.202 33.1173 257.232 32.008 260.389 32.008C262.608 32.008 264.4 32.648 265.765 33.928C267.13 35.1227 267.813 36.9573 267.813 39.432C267.813 42.0773 267.088 43.9547 265.637 45.064C264.272 46.088 262.864 46.6 261.413 46.6C260.133 46.6 258.938 46.1733 257.829 45.32C256.72 44.3813 256.08 42.9307 255.909 40.968C255.738 39.0053 256.336 36.488 257.701 33.416L259.365 33.8C255.781 35.1653 253.221 36.616 251.685 38.152C250.149 39.6027 248.741 41.5227 247.461 43.912ZM292.814 0.647995V89.096C292.814 92.68 293.539 95.112 294.99 96.392C296.526 97.672 299.043 98.312 302.542 98.312V101C301.091 100.915 298.873 100.829 295.886 100.744C292.985 100.573 290.041 100.488 287.054 100.488C284.153 100.488 281.209 100.573 278.222 100.744C275.235 100.829 273.017 100.915 271.566 101V98.312C275.065 98.312 277.539 97.672 278.99 96.392C280.526 95.112 281.294 92.68 281.294 89.096V16.008C281.294 12.168 280.611 9.35199 279.246 7.56C277.881 5.68266 275.321 4.744 271.566 4.744V2.05599C274.297 2.31199 276.942 2.43999 279.502 2.43999C281.977 2.43999 284.323 2.31199 286.542 2.05599C288.846 1.71466 290.937 1.24533 292.814 0.647995ZM327.263 101.896C323.764 101.896 320.735 101.256 318.175 99.976C315.615 98.6107 313.652 96.7333 312.287 94.344C311.007 91.9547 310.367 89.1813 310.367 86.024C310.367 82.2693 311.22 79.1973 312.927 76.808C314.719 74.4187 316.98 72.4987 319.711 71.048C322.442 69.5973 325.3 68.4027 328.287 67.464C331.359 66.44 334.26 65.5013 336.991 64.648C339.722 63.7093 341.94 62.6427 343.647 61.448C345.439 60.2533 346.335 58.6747 346.335 56.712V48.776C346.335 45.192 345.78 42.4613 344.671 40.584C343.647 38.7067 342.239 37.4693 340.447 36.872C338.655 36.1893 336.65 35.848 334.431 35.848C332.298 35.848 329.994 36.1467 327.519 36.744C325.13 37.3413 323.21 38.5787 321.759 40.456C323.38 40.7973 324.788 41.6507 325.983 43.016C327.178 44.3813 327.775 46.1307 327.775 48.264C327.775 50.3973 327.092 52.104 325.727 53.384C324.362 54.5787 322.612 55.176 320.479 55.176C318.004 55.176 316.17 54.408 314.975 52.872C313.866 51.2507 313.311 49.4587 313.311 47.496C313.311 45.2773 313.866 43.4853 314.975 42.12C316.084 40.7547 317.492 39.4747 319.199 38.28C321.162 36.9147 323.679 35.7627 326.751 34.824C329.908 33.8 333.45 33.288 337.375 33.288C340.874 33.288 343.86 33.7147 346.335 34.568C348.81 35.336 350.858 36.488 352.479 38.024C354.698 40.072 356.148 42.5893 356.831 45.576C357.514 48.4773 357.855 51.976 357.855 56.072V91.656C357.855 93.7893 358.154 95.3253 358.751 96.264C359.434 97.2027 360.458 97.672 361.823 97.672C362.762 97.672 363.658 97.4587 364.511 97.032C365.364 96.6053 366.388 95.9227 367.583 94.984L368.991 97.16C367.199 98.5253 365.492 99.6773 363.871 100.616C362.25 101.469 360.074 101.896 357.343 101.896C354.868 101.896 352.82 101.469 351.199 100.616C349.578 99.7627 348.34 98.5253 347.487 96.904C346.719 95.1973 346.335 93.064 346.335 90.504C344.031 94.344 341.258 97.2027 338.015 99.08C334.858 100.957 331.274 101.896 327.263 101.896ZM331.871 96.776C334.687 96.776 337.29 95.9653 339.679 94.344C342.154 92.7227 344.372 90.2907 346.335 87.048V61.96C345.311 63.4107 343.818 64.648 341.855 65.672C339.892 66.6107 337.759 67.592 335.455 68.616C333.151 69.5547 330.932 70.7067 328.799 72.072C326.751 73.352 325.044 75.0587 323.679 77.192C322.314 79.3253 321.631 82.0987 321.631 85.512C321.631 88.9253 322.527 91.656 324.319 93.704C326.196 95.752 328.714 96.776 331.871 96.776ZM395.749 33.288C399.162 33.288 402.064 33.8427 404.453 34.952C406.842 36.0613 408.592 37.0853 409.701 38.024C412.517 40.328 414.224 38.792 414.821 33.416H417.765C417.594 35.8053 417.466 38.664 417.381 41.992C417.296 45.2347 417.253 49.6293 417.253 55.176H414.309C413.797 52.0187 412.901 48.9467 411.621 45.96C410.426 42.9733 408.634 40.5413 406.245 38.664C403.856 36.7013 400.741 35.72 396.901 35.72C393.914 35.72 391.397 36.5733 389.349 38.28C387.386 39.9013 386.405 42.3333 386.405 45.576C386.405 48.136 387.173 50.3547 388.709 52.232C390.245 54.024 392.25 55.7307 394.725 57.352C397.2 58.888 399.888 60.5947 402.789 62.472C406.032 64.52 408.976 66.6107 411.621 68.744C414.266 70.8773 416.357 73.224 417.893 75.784C419.514 78.344 420.325 81.3733 420.325 84.872C420.325 88.7973 419.301 92.0827 417.253 94.728C415.205 97.3733 412.517 99.3787 409.189 100.744C405.946 102.109 402.362 102.792 398.437 102.792C396.56 102.792 394.768 102.621 393.061 102.28C391.44 102.024 389.861 101.597 388.325 101C387.472 100.573 386.576 100.061 385.637 99.464C384.784 98.8667 383.93 98.2267 383.077 97.544C382.224 96.8613 381.456 96.904 380.773 97.672C380.09 98.3547 379.578 99.7627 379.237 101.896H376.293C376.464 99.1653 376.592 95.8373 376.677 91.912C376.762 87.9867 376.805 82.7813 376.805 76.296H379.749C380.346 81.0747 381.2 85.256 382.309 88.84C383.418 92.424 385.168 95.24 387.557 97.288C389.946 99.2507 393.274 100.232 397.541 100.232C399.248 100.232 400.954 99.848 402.661 99.08C404.453 98.312 405.946 97.032 407.141 95.24C408.336 93.448 408.933 91.0587 408.933 88.072C408.933 84.3173 407.568 81.2453 404.837 78.856C402.106 76.4667 398.65 73.9493 394.469 71.304C391.397 69.3413 388.496 67.3787 385.765 65.416C383.12 63.4533 380.944 61.2347 379.237 58.76C377.616 56.2853 376.805 53.2987 376.805 49.8C376.805 45.96 377.658 42.8453 379.365 40.456C381.157 37.9813 383.504 36.1893 386.405 35.08C389.306 33.8853 392.421 33.288 395.749 33.288ZM452.999 33.288C456.412 33.288 459.314 33.8427 461.703 34.952C464.092 36.0613 465.842 37.0853 466.951 38.024C469.767 40.328 471.474 38.792 472.071 33.416H475.015C474.844 35.8053 474.716 38.664 474.631 41.992C474.546 45.2347 474.503 49.6293 474.503 55.176H471.559C471.047 52.0187 470.151 48.9467 468.871 45.96C467.676 42.9733 465.884 40.5413 463.495 38.664C461.106 36.7013 457.991 35.72 454.151 35.72C451.164 35.72 448.647 36.5733 446.599 38.28C444.636 39.9013 443.655 42.3333 443.655 45.576C443.655 48.136 444.423 50.3547 445.959 52.232C447.495 54.024 449.5 55.7307 451.975 57.352C454.45 58.888 457.138 60.5947 460.039 62.472C463.282 64.52 466.226 66.6107 468.871 68.744C471.516 70.8773 473.607 73.224 475.143 75.784C476.764 78.344 477.575 81.3733 477.575 84.872C477.575 88.7973 476.551 92.0827 474.503 94.728C472.455 97.3733 469.767 99.3787 466.439 100.744C463.196 102.109 459.612 102.792 455.687 102.792C453.81 102.792 452.018 102.621 450.311 102.28C448.69 102.024 447.111 101.597 445.575 101C444.722 100.573 443.826 100.061 442.887 99.464C442.034 98.8667 441.18 98.2267 440.327 97.544C439.474 96.8613 438.706 96.904 438.023 97.672C437.34 98.3547 436.828 99.7627 436.487 101.896H433.543C433.714 99.1653 433.842 95.8373 433.927 91.912C434.012 87.9867 434.055 82.7813 434.055 76.296H436.999C437.596 81.0747 438.45 85.256 439.559 88.84C440.668 92.424 442.418 95.24 444.807 97.288C447.196 99.2507 450.524 100.232 454.791 100.232C456.498 100.232 458.204 99.848 459.911 99.08C461.703 98.312 463.196 97.032 464.391 95.24C465.586 93.448 466.183 91.0587 466.183 88.072C466.183 84.3173 464.818 81.2453 462.087 78.856C459.356 76.4667 455.9 73.9493 451.719 71.304C448.647 69.3413 445.746 67.3787 443.015 65.416C440.37 63.4533 438.194 61.2347 436.487 58.76C434.866 56.2853 434.055 53.2987 434.055 49.8C434.055 45.96 434.908 42.8453 436.615 40.456C438.407 37.9813 440.754 36.1893 443.655 35.08C446.556 33.8853 449.671 33.288 452.999 33.288ZM518.441 33.288C525.95 33.288 531.796 35.592 535.977 40.2C540.244 44.7227 542.377 51.8053 542.377 61.448H497.193L497.065 59.016H530.089C530.26 54.8347 529.918 50.9947 529.065 47.496C528.212 43.912 526.846 41.0533 524.969 38.92C523.177 36.7867 520.83 35.72 517.929 35.72C514.004 35.72 510.505 37.6827 507.433 41.608C504.446 45.5333 502.654 51.7627 502.057 60.296L502.441 60.808C502.27 62.088 502.142 63.496 502.057 65.032C501.972 66.568 501.929 68.104 501.929 69.64C501.929 75.4427 502.868 80.4347 504.745 84.616C506.622 88.7973 509.054 91.9973 512.041 94.216C515.113 96.3493 518.27 97.416 521.513 97.416C524.073 97.416 526.505 97.032 528.809 96.264C531.113 95.4107 533.246 94.0453 535.209 92.168C537.172 90.2907 538.878 87.7733 540.329 84.616L542.889 85.64C541.95 88.456 540.414 91.1867 538.281 93.832C536.148 96.4773 533.46 98.6533 530.217 100.36C526.974 101.981 523.22 102.792 518.953 102.792C512.809 102.792 507.518 101.384 503.081 98.568C498.729 95.752 495.358 91.8693 492.969 86.92C490.665 81.8853 489.513 76.1253 489.513 69.64C489.513 62.1307 490.708 55.688 493.097 50.312C495.486 44.8507 498.857 40.6693 503.209 37.768C507.561 34.7813 512.638 33.288 518.441 33.288ZM574.999 33.288C578.412 33.288 581.314 33.8427 583.703 34.952C586.092 36.0613 587.842 37.0853 588.951 38.024C591.767 40.328 593.474 38.792 594.071 33.416H597.015C596.844 35.8053 596.716 38.664 596.631 41.992C596.546 45.2347 596.503 49.6293 596.503 55.176H593.559C593.047 52.0187 592.151 48.9467 590.871 45.96C589.676 42.9733 587.884 40.5413 585.495 38.664C583.106 36.7013 579.991 35.72 576.151 35.72C573.164 35.72 570.647 36.5733 568.599 38.28C566.636 39.9013 565.655 42.3333 565.655 45.576C565.655 48.136 566.423 50.3547 567.959 52.232C569.495 54.024 571.5 55.7307 573.975 57.352C576.45 58.888 579.138 60.5947 582.039 62.472C585.282 64.52 588.226 66.6107 590.871 68.744C593.516 70.8773 595.607 73.224 597.143 75.784C598.764 78.344 599.575 81.3733 599.575 84.872C599.575 88.7973 598.551 92.0827 596.503 94.728C594.455 97.3733 591.767 99.3787 588.439 100.744C585.196 102.109 581.612 102.792 577.687 102.792C575.81 102.792 574.018 102.621 572.311 102.28C570.69 102.024 569.111 101.597 567.575 101C566.722 100.573 565.826 100.061 564.887 99.464C564.034 98.8667 563.18 98.2267 562.327 97.544C561.474 96.8613 560.706 96.904 560.023 97.672C559.34 98.3547 558.828 99.7627 558.487 101.896H555.543C555.714 99.1653 555.842 95.8373 555.927 91.912C556.012 87.9867 556.055 82.7813 556.055 76.296H558.999C559.596 81.0747 560.45 85.256 561.559 88.84C562.668 92.424 564.418 95.24 566.807 97.288C569.196 99.2507 572.524 100.232 576.791 100.232C578.498 100.232 580.204 99.848 581.911 99.08C583.703 98.312 585.196 97.032 586.391 95.24C587.586 93.448 588.183 91.0587 588.183 88.072C588.183 84.3173 586.818 81.2453 584.087 78.856C581.356 76.4667 577.9 73.9493 573.719 71.304C570.647 69.3413 567.746 67.3787 565.015 65.416C562.37 63.4533 560.194 61.2347 558.487 58.76C556.866 56.2853 556.055 53.2987 556.055 49.8C556.055 45.96 556.908 42.8453 558.615 40.456C560.407 37.9813 562.754 36.1893 565.655 35.08C568.556 33.8853 571.671 33.288 574.999 33.288Z" fill="black"/>
</svg>
