<svg width="342" height="117" viewBox="0 0 342 117" fill="none" xmlns="http://www.w3.org/2000/svg">
<path d="M24.768 0.967995C29.0347 0.967995 32.2773 1.48 34.496 2.504C36.7147 3.44266 38.6773 4.50933 40.384 5.70399C41.408 6.30133 42.2187 6.77067 42.816 7.112C43.4987 7.368 44.1387 7.49599 44.736 7.49599C45.5893 7.49599 46.1867 7.02666 46.528 6.088C46.9547 5.14933 47.296 3.74133 47.552 1.864H50.496C50.4107 3.31466 50.2827 5.064 50.112 7.112C50.0267 9.07467 49.9413 11.72 49.856 15.048C49.856 18.2907 49.856 22.6 49.856 27.976H46.912C46.656 23.88 45.76 19.9547 44.224 16.2C42.688 12.4453 40.4267 9.37333 37.44 6.98399C34.5387 4.59466 30.6987 3.39999 25.92 3.39999C21.3973 3.39999 17.6427 4.76533 14.656 7.49599C11.7547 10.2267 10.304 13.8107 10.304 18.248C10.304 22.088 11.2853 25.3307 13.248 27.976C15.2107 30.536 17.8133 32.8827 21.056 35.016C24.384 37.064 27.968 39.2827 31.808 41.672C36.2453 44.4027 40.1707 47.1333 43.584 49.864C47.0827 52.5093 49.8133 55.4533 51.776 58.696C53.824 61.9387 54.848 65.864 54.848 70.472C54.848 75.9333 53.6107 80.456 51.136 84.04C48.6613 87.624 45.376 90.312 41.28 92.104C37.184 93.896 32.6613 94.792 27.712 94.792C23.1893 94.792 19.6053 94.28 16.96 93.256C14.3147 92.232 12.0533 91.1653 10.176 90.056C8.29867 88.8613 6.848 88.264 5.824 88.264C4.97067 88.264 4.33067 88.7333 3.904 89.672C3.56267 90.6107 3.264 92.0187 3.008 93.896H0.0640001C0.234667 92.104 0.320001 90.0133 0.320001 87.624C0.405334 85.1493 0.448 81.9493 0.448 78.024C0.533333 74.0987 0.576 69.1493 0.576 63.176H3.52C3.86133 68.296 4.8 73.0747 6.336 77.512C7.95733 81.9493 10.3893 85.5333 13.632 88.264C16.96 90.9093 21.3547 92.232 26.816 92.232C29.632 92.232 32.2773 91.6773 34.752 90.568C37.312 89.3733 39.4027 87.5387 41.024 85.064C42.6453 82.504 43.456 79.2187 43.456 75.208C43.456 71.7093 42.6027 68.68 40.896 66.12C39.2747 63.4747 36.9707 61.0427 33.984 58.824C30.9973 56.52 27.4987 54.1733 23.488 51.784C19.4773 49.3093 15.7227 46.792 12.224 44.232C8.72533 41.672 5.90933 38.728 3.776 35.4C1.728 31.9867 0.704 27.8907 0.704 23.112C0.704 18.0773 1.81333 13.9387 4.032 10.696C6.336 7.368 9.32267 4.93599 12.992 3.39999C16.6613 1.77866 20.5867 0.967995 24.768 0.967995ZM85.189 25.672V104.264C85.189 107.933 86.2557 110.365 88.389 111.56C90.6077 112.84 93.637 113.48 97.477 113.48V116.168C95.5997 116.083 92.997 115.955 89.669 115.784C86.341 115.699 82.7997 115.656 79.045 115.656C76.3997 115.656 73.7543 115.699 71.109 115.784C68.549 115.955 66.5863 116.083 65.221 116.168V113.48C68.293 113.48 70.469 112.925 71.749 111.816C73.029 110.707 73.669 108.616 73.669 105.544V41.032C73.669 37.192 72.9863 34.376 71.621 32.584C70.2557 30.7067 67.6957 29.768 63.941 29.768V27.08C66.6717 27.336 69.317 27.464 71.877 27.464C74.3517 27.464 76.6983 27.336 78.917 27.08C81.221 26.7387 83.3117 26.2693 85.189 25.672ZM105.669 25.288C110.192 25.288 114.245 26.5253 117.829 29C121.413 31.3893 124.229 34.9307 126.277 39.624C128.41 44.3173 129.477 50.12 129.477 57.032C129.477 61.64 128.922 66.2053 127.813 70.728C126.704 75.1653 124.954 79.2187 122.565 82.888C120.261 86.472 117.232 89.3733 113.477 91.592C109.808 93.7253 105.37 94.792 100.165 94.792C96.1543 94.792 92.6557 93.8533 89.669 91.976C86.7677 90.0987 84.805 87.8373 83.781 85.192L85.061 83.4C86.2557 85.7893 87.9623 87.7947 90.181 89.416C92.485 91.0373 95.3437 91.848 98.757 91.848C103.536 91.848 107.248 90.3547 109.893 87.368C112.538 84.3813 114.373 80.4133 115.397 75.464C116.506 70.4293 117.061 64.8827 117.061 58.824C117.061 51.9973 116.506 46.408 115.397 42.056C114.288 37.704 112.624 34.4613 110.405 32.328C108.186 30.1947 105.456 29.128 102.213 29.128C98.0317 29.128 94.2343 30.8773 90.821 34.376C87.4077 37.7893 85.2317 42.9947 84.293 49.992L82.757 48.2C83.6957 40.9467 86.2557 35.3147 90.437 31.304C94.7037 27.2933 99.781 25.288 105.669 25.288ZM170.316 25.288C177.825 25.288 183.671 27.592 187.852 32.2C192.119 36.7227 194.252 43.8053 194.252 53.448H149.068L148.94 51.016H181.964C182.135 46.8347 181.793 42.9947 180.94 39.496C180.087 35.912 178.721 33.0533 176.844 30.92C175.052 28.7867 172.705 27.72 169.804 27.72C165.879 27.72 162.38 29.6827 159.308 33.608C156.321 37.5333 154.529 43.7627 153.932 52.296L154.316 52.808C154.145 54.088 154.017 55.496 153.932 57.032C153.847 58.568 153.804 60.104 153.804 61.64C153.804 67.4427 154.743 72.4347 156.62 76.616C158.497 80.7973 160.929 83.9973 163.916 86.216C166.988 88.3493 170.145 89.416 173.388 89.416C175.948 89.416 178.38 89.032 180.684 88.264C182.988 87.4107 185.121 86.0453 187.084 84.168C189.047 82.2907 190.753 79.7733 192.204 76.616L194.764 77.64C193.825 80.456 192.289 83.1867 190.156 85.832C188.023 88.4773 185.335 90.6533 182.092 92.36C178.849 93.9813 175.095 94.792 170.828 94.792C164.684 94.792 159.393 93.384 154.956 90.568C150.604 87.752 147.233 83.8693 144.844 78.92C142.54 73.8853 141.388 68.1253 141.388 61.64C141.388 54.1307 142.583 47.688 144.972 42.312C147.361 36.8507 150.732 32.6693 155.084 29.768C159.436 26.7813 164.513 25.288 170.316 25.288ZM235.962 25.288C238.693 25.288 241.338 25.6293 243.898 26.312C246.458 26.9947 248.762 28.0187 250.81 29.384C252.773 30.664 254.266 32.1573 255.29 33.864C256.314 35.4853 256.826 37.2773 256.826 39.24C256.826 41.544 256.186 43.336 254.906 44.616C253.626 45.8107 252.005 46.408 250.042 46.408C248.165 46.408 246.501 45.8533 245.05 44.744C243.685 43.6347 243.002 42.056 243.002 40.008C243.002 38.0453 243.514 36.4667 244.538 35.272C245.647 34.0773 246.927 33.3093 248.378 32.968C247.525 31.432 245.989 30.152 243.77 29.128C241.637 28.104 239.333 27.592 236.858 27.592C234.725 27.592 232.591 28.104 230.458 29.128C228.325 30.152 226.362 31.8587 224.57 34.248C222.778 36.552 221.327 39.752 220.218 43.848C219.109 47.8587 218.554 52.8933 218.554 58.952C218.554 66.4613 219.407 72.4347 221.114 76.872C222.821 81.3093 225.039 84.5093 227.77 86.472C230.586 88.3493 233.658 89.288 236.986 89.288C239.205 89.288 241.466 88.8613 243.77 88.008C246.074 87.1547 248.25 85.7893 250.298 83.912C252.346 81.9493 254.095 79.3467 255.546 76.104L257.978 77C257.125 79.7307 255.717 82.504 253.754 85.32C251.791 88.0507 249.231 90.312 246.074 92.104C242.917 93.896 239.034 94.792 234.426 94.792C229.135 94.792 224.357 93.4267 220.09 90.696C215.823 87.9653 212.41 84.0827 209.85 79.048C207.375 73.928 206.138 67.8693 206.138 60.872C206.138 53.8747 207.375 47.7307 209.85 42.44C212.41 37.064 215.951 32.8827 220.474 29.896C224.997 26.824 230.159 25.288 235.962 25.288ZM292.607 2.376V5.064C288.34 5.064 285.738 5.53333 284.799 6.47199C283.86 7.32533 283.988 8.73333 285.183 10.696L333.055 83.912C334.676 86.3867 336.042 88.0507 337.151 88.904C338.26 89.672 339.754 90.1413 341.631 90.312V93C340.522 92.9147 338.943 92.8293 336.895 92.744C334.932 92.5733 332.842 92.488 330.623 92.488C327.21 92.488 323.754 92.5733 320.255 92.744C316.842 92.8293 314.282 92.9147 312.575 93V90.312C316.842 90.312 319.572 90.056 320.767 89.544C321.962 89.032 321.962 87.8373 320.767 85.96L272.127 11.464C270.506 8.98933 269.14 7.32533 268.031 6.47199C267.007 5.61866 265.514 5.14933 263.551 5.064V2.376C264.66 2.46133 266.239 2.58933 268.287 2.75999C270.335 2.84533 272.426 2.88799 274.559 2.88799C278.058 2.88799 281.343 2.84533 284.415 2.75999C287.487 2.58933 290.218 2.46133 292.607 2.376ZM299.647 46.28C299.647 46.28 299.732 46.5787 299.903 47.176C300.074 47.688 300.244 48.2427 300.415 48.84C300.671 49.352 300.799 49.608 300.799 49.608L285.055 73.032C281.983 77.64 280.362 81.1813 280.191 83.656C280.106 86.1307 281.087 87.88 283.135 88.904C285.183 89.8427 287.999 90.3547 291.583 90.44V93C290.388 92.9147 289.023 92.872 287.487 92.872C285.951 92.7867 284.372 92.744 282.751 92.744C281.215 92.6587 279.679 92.616 278.143 92.616C276.692 92.616 275.412 92.616 274.303 92.616C272.17 92.616 270.122 92.6587 268.159 92.744C266.282 92.744 264.703 92.8293 263.423 93V90.44C266.068 90.0133 268.543 88.8187 270.847 86.856C273.151 84.8933 275.498 82.1627 277.887 78.664L299.647 46.28ZM338.943 2.376V4.936C336.298 5.27733 333.823 6.472 331.519 8.52C329.215 10.4827 326.868 13.2133 324.479 16.712L303.871 47.432C303.871 47.432 303.743 46.8773 303.487 45.768C303.231 44.6587 303.103 44.104 303.103 44.104L317.695 22.344C320.767 17.736 322.559 14.1947 323.071 11.72C323.583 9.24533 322.986 7.53866 321.279 6.6C319.572 5.576 316.927 5.02133 313.343 4.936V2.376C314.964 2.46133 316.628 2.54666 318.335 2.632C320.042 2.632 321.706 2.67466 323.327 2.75999C325.034 2.75999 326.612 2.75999 328.063 2.75999C330.282 2.75999 332.33 2.71733 334.207 2.632C336.084 2.54666 337.663 2.46133 338.943 2.376Z" fill="#1E1E1E"/>
</svg>
