<svg width="171" height="59" viewBox="0 0 171 59" fill="none" xmlns="http://www.w3.org/2000/svg">
<path d="M12.384 0.983997C14.5173 0.983997 16.1387 1.24 17.248 1.752C18.3573 2.22133 19.3387 2.75466 20.192 3.352C20.704 3.65067 21.1093 3.88533 21.408 4.056C21.7493 4.184 22.0693 4.248 22.368 4.248C22.7947 4.248 23.0933 4.01333 23.264 3.544C23.4773 3.07466 23.648 2.37066 23.776 1.432H25.248C25.2053 2.15733 25.1413 3.032 25.056 4.056C25.0133 5.03733 24.9707 6.36 24.928 8.024C24.928 9.64533 24.928 11.8 24.928 14.488H23.456C23.328 12.44 22.88 10.4773 22.112 8.6C21.344 6.72266 20.2133 5.18666 18.72 3.992C17.2693 2.79733 15.3493 2.2 12.96 2.2C10.6987 2.2 8.82133 2.88266 7.328 4.248C5.87733 5.61333 5.152 7.40533 5.152 9.624C5.152 11.544 5.64267 13.1653 6.624 14.488C7.60533 15.768 8.90667 16.9413 10.528 18.008C12.192 19.032 13.984 20.1413 15.904 21.336C18.1227 22.7013 20.0853 24.0667 21.792 25.432C23.5413 26.7547 24.9067 28.2267 25.888 29.848C26.912 31.4693 27.424 33.432 27.424 35.736C27.424 38.4667 26.8053 40.728 25.568 42.52C24.3307 44.312 22.688 45.656 20.64 46.552C18.592 47.448 16.3307 47.896 13.856 47.896C11.5947 47.896 9.80267 47.64 8.48 47.128C7.15733 46.616 6.02667 46.0827 5.088 45.528C4.14933 44.9307 3.424 44.632 2.912 44.632C2.48533 44.632 2.16533 44.8667 1.952 45.336C1.78133 45.8053 1.632 46.5093 1.504 47.448H0.0320001C0.117334 46.552 0.16 45.5067 0.16 44.312C0.202667 43.0747 0.224 41.4747 0.224 39.512C0.266667 37.5493 0.288 35.0747 0.288 32.088H1.76C1.93067 34.648 2.4 37.0373 3.168 39.256C3.97867 41.4747 5.19467 43.2667 6.816 44.632C8.48 45.9547 10.6773 46.616 13.408 46.616C14.816 46.616 16.1387 46.3387 17.376 45.784C18.656 45.1867 19.7013 44.2693 20.512 43.032C21.3227 41.752 21.728 40.1093 21.728 38.104C21.728 36.3547 21.3013 34.84 20.448 33.56C19.6373 32.2373 18.4853 31.0213 16.992 29.912C15.4987 28.76 13.7493 27.5867 11.744 26.392C9.73867 25.1547 7.86133 23.896 6.112 22.616C4.36267 21.336 2.95467 19.864 1.888 18.2C0.864 16.4933 0.352 14.4453 0.352 12.056C0.352 9.53867 0.906667 7.46933 2.016 5.848C3.168 4.184 4.66133 2.968 6.496 2.2C8.33067 1.38933 10.2933 0.983997 12.384 0.983997ZM42.5945 13.336V52.632C42.5945 54.4667 43.1278 55.6827 44.1945 56.28C45.3038 56.92 46.8185 57.24 48.7385 57.24V58.584C47.7998 58.5413 46.4985 58.4773 44.8345 58.392C43.1705 58.3493 41.3998 58.328 39.5225 58.328C38.1998 58.328 36.8772 58.3493 35.5545 58.392C34.2745 58.4773 33.2932 58.5413 32.6105 58.584V57.24C34.1465 57.24 35.2345 56.9627 35.8745 56.408C36.5145 55.8533 36.8345 54.808 36.8345 53.272V21.016C36.8345 19.096 36.4932 17.688 35.8105 16.792C35.1278 15.8533 33.8478 15.384 31.9705 15.384V14.04C33.3358 14.168 34.6585 14.232 35.9385 14.232C37.1758 14.232 38.3492 14.168 39.4585 14.04C40.6105 13.8693 41.6558 13.6347 42.5945 13.336ZM52.8345 13.144C55.0958 13.144 57.1225 13.7627 58.9145 15C60.7065 16.1947 62.1145 17.9653 63.1385 20.312C64.2052 22.6587 64.7385 25.56 64.7385 29.016C64.7385 31.32 64.4612 33.6027 63.9065 35.864C63.3518 38.0827 62.4772 40.1093 61.2825 41.944C60.1305 43.736 58.6158 45.1867 56.7385 46.296C54.9038 47.3627 52.6852 47.896 50.0825 47.896C48.0772 47.896 46.3278 47.4267 44.8345 46.488C43.3838 45.5493 42.4025 44.4187 41.8905 43.096L42.5305 42.2C43.1278 43.3947 43.9812 44.3973 45.0905 45.208C46.2425 46.0187 47.6718 46.424 49.3785 46.424C51.7678 46.424 53.6238 45.6773 54.9465 44.184C56.2692 42.6907 57.1865 40.7067 57.6985 38.232C58.2532 35.7147 58.5305 32.9413 58.5305 29.912C58.5305 26.4987 58.2532 23.704 57.6985 21.528C57.1438 19.352 56.3118 17.7307 55.2025 16.664C54.0932 15.5973 52.7278 15.064 51.1065 15.064C49.0158 15.064 47.1172 15.9387 45.4105 17.688C43.7038 19.3947 42.6158 21.9973 42.1465 25.496L41.3785 24.6C41.8478 20.9733 43.1278 18.1573 45.2185 16.152C47.3518 14.1467 49.8905 13.144 52.8345 13.144ZM85.158 13.144C88.9127 13.144 91.8353 14.296 93.926 16.6C96.0593 18.8613 97.126 22.4027 97.126 27.224H74.534L74.47 26.008H90.982C91.0673 23.9173 90.8967 21.9973 90.47 20.248C90.0433 18.456 89.3607 17.0267 88.422 15.96C87.526 14.8933 86.3527 14.36 84.902 14.36C82.9393 14.36 81.19 15.3413 79.654 17.304C78.1607 19.2667 77.2647 22.3813 76.966 26.648L77.158 26.904C77.0727 27.544 77.0087 28.248 76.966 29.016C76.9233 29.784 76.902 30.552 76.902 31.32C76.902 34.2213 77.3713 36.7173 78.31 38.808C79.2487 40.8987 80.4647 42.4987 81.958 43.608C83.494 44.6747 85.0727 45.208 86.694 45.208C87.974 45.208 89.19 45.016 90.342 44.632C91.494 44.2053 92.5607 43.5227 93.542 42.584C94.5233 41.6453 95.3767 40.3867 96.102 38.808L97.382 39.32C96.9127 40.728 96.1447 42.0933 95.078 43.416C94.0113 44.7387 92.6673 45.8267 91.046 46.68C89.4247 47.4907 87.5473 47.896 85.414 47.896C82.342 47.896 79.6967 47.192 77.478 45.784C75.302 44.376 73.6167 42.4347 72.422 39.96C71.27 37.4427 70.694 34.5627 70.694 31.32C70.694 27.5653 71.2913 24.344 72.486 21.656C73.6807 18.9253 75.366 16.8347 77.542 15.384C79.718 13.8907 82.2567 13.144 85.158 13.144ZM117.981 13.144C119.346 13.144 120.669 13.3147 121.949 13.656C123.229 13.9973 124.381 14.5093 125.405 15.192C126.386 15.832 127.133 16.5787 127.645 17.432C128.157 18.2427 128.413 19.1387 128.413 20.12C128.413 21.272 128.093 22.168 127.453 22.808C126.813 23.4053 126.002 23.704 125.021 23.704C124.082 23.704 123.25 23.4267 122.525 22.872C121.842 22.3173 121.501 21.528 121.501 20.504C121.501 19.5227 121.757 18.7333 122.269 18.136C122.824 17.5387 123.464 17.1547 124.189 16.984C123.762 16.216 122.994 15.576 121.885 15.064C120.818 14.552 119.666 14.296 118.429 14.296C117.362 14.296 116.296 14.552 115.229 15.064C114.162 15.576 113.181 16.4293 112.285 17.624C111.389 18.776 110.664 20.376 110.109 22.424C109.554 24.4293 109.277 26.9467 109.277 29.976C109.277 33.7307 109.704 36.7173 110.557 38.936C111.41 41.1547 112.52 42.7547 113.885 43.736C115.293 44.6747 116.829 45.144 118.493 45.144C119.602 45.144 120.733 44.9307 121.885 44.504C123.037 44.0773 124.125 43.3947 125.149 42.456C126.173 41.4747 127.048 40.1733 127.773 38.552L128.989 39C128.562 40.3653 127.858 41.752 126.877 43.16C125.896 44.5253 124.616 45.656 123.037 46.552C121.458 47.448 119.517 47.896 117.213 47.896C114.568 47.896 112.178 47.2133 110.045 45.848C107.912 44.4827 106.205 42.5413 104.925 40.024C103.688 37.464 103.069 34.4347 103.069 30.936C103.069 27.4373 103.688 24.3653 104.925 21.72C106.205 19.032 107.976 16.9413 110.237 15.448C112.498 13.912 115.08 13.144 117.981 13.144ZM146.304 1.688V3.032C144.17 3.032 142.869 3.26666 142.4 3.736C141.93 4.16267 141.994 4.86667 142.592 5.848L166.528 42.456C167.338 43.6933 168.021 44.5253 168.576 44.952C169.13 45.336 169.877 45.5707 170.816 45.656V47C170.261 46.9573 169.472 46.9147 168.448 46.872C167.466 46.7867 166.421 46.744 165.312 46.744C163.605 46.744 161.877 46.7867 160.128 46.872C158.421 46.9147 157.141 46.9573 156.288 47V45.656C158.421 45.656 159.786 45.528 160.384 45.272C160.981 45.016 160.981 44.4187 160.384 43.48L136.064 6.232C135.253 4.99467 134.57 4.16267 134.016 3.736C133.504 3.30933 132.757 3.07466 131.776 3.032V1.688C132.33 1.73067 133.12 1.79467 134.144 1.88C135.168 1.92266 136.213 1.944 137.28 1.944C139.029 1.944 140.672 1.92266 142.208 1.88C143.744 1.79467 145.109 1.73067 146.304 1.688ZM149.824 23.64C149.824 23.64 149.866 23.7893 149.952 24.088C150.037 24.344 150.122 24.6213 150.208 24.92C150.336 25.176 150.4 25.304 150.4 25.304L142.528 37.016C140.992 39.32 140.181 41.0907 140.095 42.328C140.053 43.5653 140.544 44.44 141.568 44.952C142.592 45.4213 144 45.6773 145.792 45.72V47C145.194 46.9573 144.512 46.936 143.744 46.936C142.976 46.8933 142.186 46.872 141.376 46.872C140.608 46.8293 139.84 46.808 139.072 46.808C138.346 46.808 137.706 46.808 137.152 46.808C136.085 46.808 135.061 46.8293 134.08 46.872C133.141 46.872 132.352 46.9147 131.712 47V45.72C133.034 45.5067 134.272 44.9093 135.424 43.928C136.576 42.9467 137.749 41.5813 138.944 39.832L149.824 23.64ZM169.472 1.688V2.968C168.149 3.13867 166.912 3.736 165.76 4.76C164.608 5.74133 163.434 7.10667 162.24 8.856L151.936 24.216C151.936 24.216 151.872 23.9387 151.744 23.384C151.616 22.8293 151.552 22.552 151.552 22.552L158.848 11.672C160.384 9.368 161.28 7.59733 161.536 6.36C161.792 5.12266 161.493 4.26933 160.64 3.8C159.786 3.288 158.464 3.01066 156.672 2.968V1.688C157.482 1.73067 158.314 1.77333 159.168 1.816C160.021 1.816 160.853 1.83733 161.664 1.88C162.517 1.88 163.306 1.88 164.032 1.88C165.141 1.88 166.165 1.85866 167.104 1.816C168.042 1.77333 168.832 1.73067 169.472 1.688Z" fill="#1E1E1E"/>
</svg>
