<svg width="821" height="125" viewBox="0 0 821 125" fill="none" xmlns="http://www.w3.org/2000/svg">
<path d="M24.768 8.96799C29.0347 8.96799 32.2773 9.48 34.496 10.504C36.7147 11.4427 38.6773 12.5093 40.384 13.704C41.408 14.3013 42.2187 14.7707 42.816 15.112C43.4987 15.368 44.1387 15.496 44.736 15.496C45.5893 15.496 46.1867 15.0267 46.528 14.088C46.9547 13.1493 47.296 11.7413 47.552 9.864H50.496C50.4107 11.3147 50.2827 13.064 50.112 15.112C50.0267 17.0747 49.9413 19.72 49.856 23.048C49.856 26.2907 49.856 30.6 49.856 35.976H46.912C46.656 31.88 45.76 27.9547 44.224 24.2C42.688 20.4453 40.4267 17.3733 37.44 14.984C34.5387 12.5947 30.6987 11.4 25.92 11.4C21.3973 11.4 17.6427 12.7653 14.656 15.496C11.7547 18.2267 10.304 21.8107 10.304 26.248C10.304 30.088 11.2853 33.3307 13.248 35.976C15.2107 38.536 17.8133 40.8827 21.056 43.016C24.384 45.064 27.968 47.2827 31.808 49.672C36.2453 52.4027 40.1707 55.1333 43.584 57.864C47.0827 60.5093 49.8133 63.4533 51.776 66.696C53.824 69.9387 54.848 73.864 54.848 78.472C54.848 83.9333 53.6107 88.456 51.136 92.04C48.6613 95.624 45.376 98.312 41.28 100.104C37.184 101.896 32.6613 102.792 27.712 102.792C23.1893 102.792 19.6053 102.28 16.96 101.256C14.3147 100.232 12.0533 99.1653 10.176 98.056C8.29867 96.8613 6.848 96.264 5.824 96.264C4.97067 96.264 4.33067 96.7333 3.904 97.672C3.56267 98.6107 3.264 100.019 3.008 101.896H0.0640001C0.234667 100.104 0.320001 98.0133 0.320001 95.624C0.405334 93.1493 0.448 89.9493 0.448 86.024C0.533333 82.0987 0.576 77.1493 0.576 71.176H3.52C3.86133 76.296 4.8 81.0747 6.336 85.512C7.95733 89.9493 10.3893 93.5333 13.632 96.264C16.96 98.9093 21.3547 100.232 26.816 100.232C29.632 100.232 32.2773 99.6773 34.752 98.568C37.312 97.3733 39.4027 95.5387 41.024 93.064C42.6453 90.504 43.456 87.2187 43.456 83.208C43.456 79.7093 42.6027 76.68 40.896 74.12C39.2747 71.4747 36.9707 69.0427 33.984 66.824C30.9973 64.52 27.4987 62.1733 23.488 59.784C19.4773 57.3093 15.7227 54.792 12.224 52.232C8.72533 49.672 5.90933 46.728 3.776 43.4C1.728 39.9867 0.704 35.8907 0.704 31.112C0.704 26.0773 1.81333 21.9387 4.032 18.696C6.336 15.368 9.32267 12.936 12.992 11.4C16.6613 9.77866 20.5867 8.96799 24.768 8.96799ZM85.189 33.672V112.264C85.189 115.933 86.2557 118.365 88.389 119.56C90.6077 120.84 93.637 121.48 97.477 121.48V124.168C95.5997 124.083 92.997 123.955 89.669 123.784C86.341 123.699 82.7997 123.656 79.045 123.656C76.3997 123.656 73.7543 123.699 71.109 123.784C68.549 123.955 66.5863 124.083 65.221 124.168V121.48C68.293 121.48 70.469 120.925 71.749 119.816C73.029 118.707 73.669 116.616 73.669 113.544V49.032C73.669 45.192 72.9863 42.376 71.621 40.584C70.2557 38.7067 67.6957 37.768 63.941 37.768V35.08C66.6717 35.336 69.317 35.464 71.877 35.464C74.3517 35.464 76.6983 35.336 78.917 35.08C81.221 34.7387 83.3117 34.2693 85.189 33.672ZM105.669 33.288C110.192 33.288 114.245 34.5253 117.829 37C121.413 39.3893 124.229 42.9307 126.277 47.624C128.41 52.3173 129.477 58.12 129.477 65.032C129.477 69.64 128.922 74.2053 127.813 78.728C126.704 83.1653 124.954 87.2187 122.565 90.888C120.261 94.472 117.232 97.3733 113.477 99.592C109.808 101.725 105.37 102.792 100.165 102.792C96.1543 102.792 92.6557 101.853 89.669 99.976C86.7677 98.0987 84.805 95.8373 83.781 93.192L85.061 91.4C86.2557 93.7893 87.9623 95.7947 90.181 97.416C92.485 99.0373 95.3437 99.848 98.757 99.848C103.536 99.848 107.248 98.3547 109.893 95.368C112.538 92.3813 114.373 88.4133 115.397 83.464C116.506 78.4293 117.061 72.8827 117.061 66.824C117.061 59.9973 116.506 54.408 115.397 50.056C114.288 45.704 112.624 42.4613 110.405 40.328C108.186 38.1947 105.456 37.128 102.213 37.128C98.0317 37.128 94.2343 38.8773 90.821 42.376C87.4077 45.7893 85.2317 50.9947 84.293 57.992L82.757 56.2C83.6957 48.9467 86.2557 43.3147 90.437 39.304C94.7037 35.2933 99.781 33.288 105.669 33.288ZM170.316 33.288C177.825 33.288 183.671 35.592 187.852 40.2C192.119 44.7227 194.252 51.8053 194.252 61.448H149.068L148.94 59.016H181.964C182.135 54.8347 181.793 50.9947 180.94 47.496C180.087 43.912 178.721 41.0533 176.844 38.92C175.052 36.7867 172.705 35.72 169.804 35.72C165.879 35.72 162.38 37.6827 159.308 41.608C156.321 45.5333 154.529 51.7627 153.932 60.296L154.316 60.808C154.145 62.088 154.017 63.496 153.932 65.032C153.847 66.568 153.804 68.104 153.804 69.64C153.804 75.4427 154.743 80.4347 156.62 84.616C158.497 88.7973 160.929 91.9973 163.916 94.216C166.988 96.3493 170.145 97.416 173.388 97.416C175.948 97.416 178.38 97.032 180.684 96.264C182.988 95.4107 185.121 94.0453 187.084 92.168C189.047 90.2907 190.753 87.7733 192.204 84.616L194.764 85.64C193.825 88.456 192.289 91.1867 190.156 93.832C188.023 96.4773 185.335 98.6533 182.092 100.36C178.849 101.981 175.095 102.792 170.828 102.792C164.684 102.792 159.393 101.384 154.956 98.568C150.604 95.752 147.233 91.8693 144.844 86.92C142.54 81.8853 141.388 76.1253 141.388 69.64C141.388 62.1307 142.583 55.688 144.972 50.312C147.361 44.8507 150.732 40.6693 155.084 37.768C159.436 34.7813 164.513 33.288 170.316 33.288ZM235.962 33.288C238.693 33.288 241.338 33.6293 243.898 34.312C246.458 34.9947 248.762 36.0187 250.81 37.384C252.773 38.664 254.266 40.1573 255.29 41.864C256.314 43.4853 256.826 45.2773 256.826 47.24C256.826 49.544 256.186 51.336 254.906 52.616C253.626 53.8107 252.005 54.408 250.042 54.408C248.165 54.408 246.501 53.8533 245.05 52.744C243.685 51.6347 243.002 50.056 243.002 48.008C243.002 46.0453 243.514 44.4667 244.538 43.272C245.647 42.0773 246.927 41.3093 248.378 40.968C247.525 39.432 245.989 38.152 243.77 37.128C241.637 36.104 239.333 35.592 236.858 35.592C234.725 35.592 232.591 36.104 230.458 37.128C228.325 38.152 226.362 39.8587 224.57 42.248C222.778 44.552 221.327 47.752 220.218 51.848C219.109 55.8587 218.554 60.8933 218.554 66.952C218.554 74.4613 219.407 80.4347 221.114 84.872C222.821 89.3093 225.039 92.5093 227.77 94.472C230.586 96.3493 233.658 97.288 236.986 97.288C239.205 97.288 241.466 96.8613 243.77 96.008C246.074 95.1547 248.25 93.7893 250.298 91.912C252.346 89.9493 254.095 87.3467 255.546 84.104L257.978 85C257.125 87.7307 255.717 90.504 253.754 93.32C251.791 96.0507 249.231 98.312 246.074 100.104C242.917 101.896 239.034 102.792 234.426 102.792C229.135 102.792 224.357 101.427 220.09 98.696C215.823 95.9653 212.41 92.0827 209.85 87.048C207.375 81.928 206.138 75.8693 206.138 68.872C206.138 61.8747 207.375 55.7307 209.85 50.44C212.41 45.064 215.951 40.8827 220.474 37.896C224.997 34.824 230.159 33.288 235.962 33.288ZM292.607 10.376V13.064C288.34 13.064 285.738 13.5333 284.799 14.472C283.86 15.3253 283.988 16.7333 285.183 18.696L333.055 91.912C334.676 94.3867 336.042 96.0507 337.151 96.904C338.26 97.672 339.754 98.1413 341.631 98.312V101C340.522 100.915 338.943 100.829 336.895 100.744C334.932 100.573 332.842 100.488 330.623 100.488C327.21 100.488 323.754 100.573 320.255 100.744C316.842 100.829 314.282 100.915 312.575 101V98.312C316.842 98.312 319.572 98.056 320.767 97.544C321.962 97.032 321.962 95.8373 320.767 93.96L272.127 19.464C270.506 16.9893 269.14 15.3253 268.031 14.472C267.007 13.6187 265.514 13.1493 263.551 13.064V10.376C264.66 10.4613 266.239 10.5893 268.287 10.76C270.335 10.8453 272.426 10.888 274.559 10.888C278.058 10.888 281.343 10.8453 284.415 10.76C287.487 10.5893 290.218 10.4613 292.607 10.376ZM299.647 54.28C299.647 54.28 299.732 54.5787 299.903 55.176C300.074 55.688 300.244 56.2427 300.415 56.84C300.671 57.352 300.799 57.608 300.799 57.608L285.055 81.032C281.983 85.64 280.362 89.1813 280.191 91.656C280.106 94.1307 281.087 95.88 283.135 96.904C285.183 97.8427 287.999 98.3547 291.583 98.44V101C290.388 100.915 289.023 100.872 287.487 100.872C285.951 100.787 284.372 100.744 282.751 100.744C281.215 100.659 279.679 100.616 278.143 100.616C276.692 100.616 275.412 100.616 274.303 100.616C272.17 100.616 270.122 100.659 268.159 100.744C266.282 100.744 264.703 100.829 263.423 101V98.44C266.068 98.0133 268.543 96.8187 270.847 94.856C273.151 92.8933 275.498 90.1627 277.887 86.664L299.647 54.28ZM338.943 10.376V12.936C336.298 13.2773 333.823 14.472 331.519 16.52C329.215 18.4827 326.868 21.2133 324.479 24.712L303.871 55.432C303.871 55.432 303.743 54.8773 303.487 53.768C303.231 52.6587 303.103 52.104 303.103 52.104L317.695 30.344C320.767 25.736 322.559 22.1947 323.071 19.72C323.583 17.2453 322.986 15.5387 321.279 14.6C319.572 13.576 316.927 13.0213 313.343 12.936V10.376C314.964 10.4613 316.628 10.5467 318.335 10.632C320.042 10.632 321.706 10.6747 323.327 10.76C325.034 10.76 326.612 10.76 328.063 10.76C330.282 10.76 332.33 10.7173 334.207 10.632C336.084 10.5467 337.663 10.4613 338.943 10.376ZM399.249 33.288C402.662 33.288 405.564 33.8427 407.953 34.952C410.342 36.0613 412.092 37.0853 413.201 38.024C416.017 40.328 417.724 38.792 418.321 33.416H421.265C421.094 35.8053 420.966 38.664 420.881 41.992C420.796 45.2347 420.753 49.6293 420.753 55.176H417.809C417.297 52.0187 416.401 48.9467 415.121 45.96C413.926 42.9733 412.134 40.5413 409.745 38.664C407.356 36.7013 404.241 35.72 400.401 35.72C397.414 35.72 394.897 36.5733 392.849 38.28C390.886 39.9013 389.905 42.3333 389.905 45.576C389.905 48.136 390.673 50.3547 392.209 52.232C393.745 54.024 395.75 55.7307 398.225 57.352C400.7 58.888 403.388 60.5947 406.289 62.472C409.532 64.52 412.476 66.6107 415.121 68.744C417.766 70.8773 419.857 73.224 421.393 75.784C423.014 78.344 423.825 81.3733 423.825 84.872C423.825 88.7973 422.801 92.0827 420.753 94.728C418.705 97.3733 416.017 99.3787 412.689 100.744C409.446 102.109 405.862 102.792 401.937 102.792C400.06 102.792 398.268 102.621 396.561 102.28C394.94 102.024 393.361 101.597 391.825 101C390.972 100.573 390.076 100.061 389.137 99.464C388.284 98.8667 387.43 98.2267 386.577 97.544C385.724 96.8613 384.956 96.904 384.273 97.672C383.59 98.3547 383.078 99.7627 382.737 101.896H379.793C379.964 99.1653 380.092 95.8373 380.177 91.912C380.262 87.9867 380.305 82.7813 380.305 76.296H383.249C383.846 81.0747 384.7 85.256 385.809 88.84C386.918 92.424 388.668 95.24 391.057 97.288C393.446 99.2507 396.774 100.232 401.041 100.232C402.748 100.232 404.454 99.848 406.161 99.08C407.953 98.312 409.446 97.032 410.641 95.24C411.836 93.448 412.433 91.0587 412.433 88.072C412.433 84.3173 411.068 81.2453 408.337 78.856C405.606 76.4667 402.15 73.9493 397.969 71.304C394.897 69.3413 391.996 67.3787 389.265 65.416C386.62 63.4533 384.444 61.2347 382.737 58.76C381.116 56.2853 380.305 53.2987 380.305 49.8C380.305 45.96 381.158 42.8453 382.865 40.456C384.657 37.9813 387.004 36.1893 389.905 35.08C392.806 33.8853 395.921 33.288 399.249 33.288ZM453.939 33.672V112.264C453.939 115.933 455.006 118.365 457.139 119.56C459.358 120.84 462.387 121.48 466.227 121.48V124.168C464.35 124.083 461.747 123.955 458.419 123.784C455.091 123.699 451.55 123.656 447.795 123.656C445.15 123.656 442.504 123.699 439.859 123.784C437.299 123.955 435.336 124.083 433.971 124.168V121.48C437.043 121.48 439.219 120.925 440.499 119.816C441.779 118.707 442.419 116.616 442.419 113.544V49.032C442.419 45.192 441.736 42.376 440.371 40.584C439.006 38.7067 436.446 37.768 432.691 37.768V35.08C435.422 35.336 438.067 35.464 440.627 35.464C443.102 35.464 445.448 35.336 447.667 35.08C449.971 34.7387 452.062 34.2693 453.939 33.672ZM474.419 33.288C478.942 33.288 482.995 34.5253 486.579 37C490.163 39.3893 492.979 42.9307 495.027 47.624C497.16 52.3173 498.227 58.12 498.227 65.032C498.227 69.64 497.672 74.2053 496.563 78.728C495.454 83.1653 493.704 87.2187 491.315 90.888C489.011 94.472 485.982 97.3733 482.227 99.592C478.558 101.725 474.12 102.792 468.915 102.792C464.904 102.792 461.406 101.853 458.419 99.976C455.518 98.0987 453.555 95.8373 452.531 93.192L453.811 91.4C455.006 93.7893 456.712 95.7947 458.931 97.416C461.235 99.0373 464.094 99.848 467.507 99.848C472.286 99.848 475.998 98.3547 478.643 95.368C481.288 92.3813 483.123 88.4133 484.147 83.464C485.256 78.4293 485.811 72.8827 485.811 66.824C485.811 59.9973 485.256 54.408 484.147 50.056C483.038 45.704 481.374 42.4613 479.155 40.328C476.936 38.1947 474.206 37.128 470.963 37.128C466.782 37.128 462.984 38.8773 459.571 42.376C456.158 45.7893 453.982 50.9947 453.043 57.992L451.507 56.2C452.446 48.9467 455.006 43.3147 459.187 39.304C463.454 35.2933 468.531 33.288 474.419 33.288ZM539.066 33.288C546.575 33.288 552.421 35.592 556.602 40.2C560.869 44.7227 563.002 51.8053 563.002 61.448H517.818L517.69 59.016H550.714C550.885 54.8347 550.543 50.9947 549.69 47.496C548.837 43.912 547.471 41.0533 545.594 38.92C543.802 36.7867 541.455 35.72 538.554 35.72C534.629 35.72 531.13 37.6827 528.058 41.608C525.071 45.5333 523.279 51.7627 522.682 60.296L523.066 60.808C522.895 62.088 522.767 63.496 522.682 65.032C522.597 66.568 522.554 68.104 522.554 69.64C522.554 75.4427 523.493 80.4347 525.37 84.616C527.247 88.7973 529.679 91.9973 532.666 94.216C535.738 96.3493 538.895 97.416 542.138 97.416C544.698 97.416 547.13 97.032 549.434 96.264C551.738 95.4107 553.871 94.0453 555.834 92.168C557.797 90.2907 559.503 87.7733 560.954 84.616L563.514 85.64C562.575 88.456 561.039 91.1867 558.906 93.832C556.773 96.4773 554.085 98.6533 550.842 100.36C547.599 101.981 543.845 102.792 539.578 102.792C533.434 102.792 528.143 101.384 523.706 98.568C519.354 95.752 515.983 91.8693 513.594 86.92C511.29 81.8853 510.138 76.1253 510.138 69.64C510.138 62.1307 511.333 55.688 513.722 50.312C516.111 44.8507 519.482 40.6693 523.834 37.768C528.186 34.7813 533.263 33.288 539.066 33.288ZM604.712 33.288C607.443 33.288 610.088 33.6293 612.648 34.312C615.208 34.9947 617.512 36.0187 619.56 37.384C621.523 38.664 623.016 40.1573 624.04 41.864C625.064 43.4853 625.576 45.2773 625.576 47.24C625.576 49.544 624.936 51.336 623.656 52.616C622.376 53.8107 620.755 54.408 618.792 54.408C616.915 54.408 615.251 53.8533 613.8 52.744C612.435 51.6347 611.752 50.056 611.752 48.008C611.752 46.0453 612.264 44.4667 613.288 43.272C614.397 42.0773 615.677 41.3093 617.128 40.968C616.275 39.432 614.739 38.152 612.52 37.128C610.387 36.104 608.083 35.592 605.608 35.592C603.475 35.592 601.341 36.104 599.208 37.128C597.075 38.152 595.112 39.8587 593.32 42.248C591.528 44.552 590.077 47.752 588.968 51.848C587.859 55.8587 587.304 60.8933 587.304 66.952C587.304 74.4613 588.157 80.4347 589.864 84.872C591.571 89.3093 593.789 92.5093 596.52 94.472C599.336 96.3493 602.408 97.288 605.736 97.288C607.955 97.288 610.216 96.8613 612.52 96.008C614.824 95.1547 617 93.7893 619.048 91.912C621.096 89.9493 622.845 87.3467 624.296 84.104L626.728 85C625.875 87.7307 624.467 90.504 622.504 93.32C620.541 96.0507 617.981 98.312 614.824 100.104C611.667 101.896 607.784 102.792 603.176 102.792C597.885 102.792 593.107 101.427 588.84 98.696C584.573 95.9653 581.16 92.0827 578.6 87.048C576.125 81.928 574.888 75.8693 574.888 68.872C574.888 61.8747 576.125 55.7307 578.6 50.44C581.16 45.064 584.701 40.8827 589.224 37.896C593.747 34.824 598.909 33.288 604.712 33.288ZM649.554 3.07999C651.773 3.07999 653.693 3.89066 655.314 5.51199C656.935 7.13333 657.746 9.05333 657.746 11.272C657.746 13.4907 656.935 15.4107 655.314 17.032C653.693 18.6533 651.773 19.464 649.554 19.464C647.335 19.464 645.415 18.6533 643.794 17.032C642.173 15.4107 641.362 13.4907 641.362 11.272C641.362 9.05333 642.173 7.13333 643.794 5.51199C645.415 3.89066 647.335 3.07999 649.554 3.07999ZM656.21 33.672V89.096C656.21 92.68 656.935 95.112 658.386 96.392C659.922 97.672 662.439 98.312 665.938 98.312V101C664.487 100.915 662.269 100.829 659.282 100.744C656.381 100.573 653.437 100.488 650.45 100.488C647.549 100.488 644.605 100.573 641.618 100.744C638.631 100.829 636.413 100.915 634.962 101V98.312C638.461 98.312 640.935 97.672 642.386 96.392C643.922 95.112 644.69 92.68 644.69 89.096V49.032C644.69 45.192 644.007 42.376 642.642 40.584C641.277 38.7067 638.717 37.768 634.962 37.768V35.08C637.693 35.336 640.338 35.464 642.898 35.464C645.373 35.464 647.719 35.336 649.938 35.08C652.242 34.7387 654.333 34.2693 656.21 33.672ZM690.638 101.896C687.139 101.896 684.11 101.256 681.55 99.976C678.99 98.6107 677.027 96.7333 675.662 94.344C674.382 91.9547 673.742 89.1813 673.742 86.024C673.742 82.2693 674.595 79.1973 676.302 76.808C678.094 74.4187 680.355 72.4987 683.086 71.048C685.817 69.5973 688.675 68.4027 691.662 67.464C694.734 66.44 697.635 65.5013 700.366 64.648C703.097 63.7093 705.315 62.6427 707.022 61.448C708.814 60.2533 709.71 58.6747 709.71 56.712V48.776C709.71 45.192 709.155 42.4613 708.046 40.584C707.022 38.7067 705.614 37.4693 703.822 36.872C702.03 36.1893 700.025 35.848 697.806 35.848C695.673 35.848 693.369 36.1467 690.894 36.744C688.505 37.3413 686.585 38.5787 685.134 40.456C686.755 40.7973 688.163 41.6507 689.358 43.016C690.553 44.3813 691.15 46.1307 691.15 48.264C691.15 50.3973 690.467 52.104 689.102 53.384C687.737 54.5787 685.987 55.176 683.854 55.176C681.379 55.176 679.545 54.408 678.35 52.872C677.241 51.2507 676.686 49.4587 676.686 47.496C676.686 45.2773 677.241 43.4853 678.35 42.12C679.459 40.7547 680.867 39.4747 682.574 38.28C684.537 36.9147 687.054 35.7627 690.126 34.824C693.283 33.8 696.825 33.288 700.75 33.288C704.249 33.288 707.235 33.7147 709.71 34.568C712.185 35.336 714.233 36.488 715.854 38.024C718.073 40.072 719.523 42.5893 720.206 45.576C720.889 48.4773 721.23 51.976 721.23 56.072V91.656C721.23 93.7893 721.529 95.3253 722.126 96.264C722.809 97.2027 723.833 97.672 725.198 97.672C726.137 97.672 727.033 97.4587 727.886 97.032C728.739 96.6053 729.763 95.9227 730.958 94.984L732.366 97.16C730.574 98.5253 728.867 99.6773 727.246 100.616C725.625 101.469 723.449 101.896 720.718 101.896C718.243 101.896 716.195 101.469 714.574 100.616C712.953 99.7627 711.715 98.5253 710.862 96.904C710.094 95.1973 709.71 93.064 709.71 90.504C707.406 94.344 704.633 97.2027 701.39 99.08C698.233 100.957 694.649 101.896 690.638 101.896ZM695.246 96.776C698.062 96.776 700.665 95.9653 703.054 94.344C705.529 92.7227 707.747 90.2907 709.71 87.048V61.96C708.686 63.4107 707.193 64.648 705.23 65.672C703.267 66.6107 701.134 67.592 698.83 68.616C696.526 69.5547 694.307 70.7067 692.174 72.072C690.126 73.352 688.419 75.0587 687.054 77.192C685.689 79.3253 685.006 82.0987 685.006 85.512C685.006 88.9253 685.902 91.656 687.694 93.704C689.571 95.752 692.089 96.776 695.246 96.776ZM756.564 0.647995V89.096C756.564 92.68 757.289 95.112 758.74 96.392C760.276 97.672 762.793 98.312 766.292 98.312V101C764.841 100.915 762.623 100.829 759.636 100.744C756.735 100.573 753.791 100.488 750.804 100.488C747.903 100.488 744.959 100.573 741.972 100.744C738.985 100.829 736.767 100.915 735.316 101V98.312C738.815 98.312 741.289 97.672 742.74 96.392C744.276 95.112 745.044 92.68 745.044 89.096V16.008C745.044 12.168 744.361 9.35199 742.996 7.56C741.631 5.68266 739.071 4.744 735.316 4.744V2.05599C738.047 2.31199 740.692 2.43999 743.252 2.43999C745.727 2.43999 748.073 2.31199 750.292 2.05599C752.596 1.71466 754.687 1.24533 756.564 0.647995ZM795.749 33.288C799.162 33.288 802.064 33.8427 804.453 34.952C806.842 36.0613 808.592 37.0853 809.701 38.024C812.517 40.328 814.224 38.792 814.821 33.416H817.765C817.594 35.8053 817.466 38.664 817.381 41.992C817.296 45.2347 817.253 49.6293 817.253 55.176H814.309C813.797 52.0187 812.901 48.9467 811.621 45.96C810.426 42.9733 808.634 40.5413 806.245 38.664C803.856 36.7013 800.741 35.72 796.901 35.72C793.914 35.72 791.397 36.5733 789.349 38.28C787.386 39.9013 786.405 42.3333 786.405 45.576C786.405 48.136 787.173 50.3547 788.709 52.232C790.245 54.024 792.25 55.7307 794.725 57.352C797.2 58.888 799.888 60.5947 802.789 62.472C806.032 64.52 808.976 66.6107 811.621 68.744C814.266 70.8773 816.357 73.224 817.893 75.784C819.514 78.344 820.325 81.3733 820.325 84.872C820.325 88.7973 819.301 92.0827 817.253 94.728C815.205 97.3733 812.517 99.3787 809.189 100.744C805.946 102.109 802.362 102.792 798.437 102.792C796.56 102.792 794.768 102.621 793.061 102.28C791.44 102.024 789.861 101.597 788.325 101C787.472 100.573 786.576 100.061 785.637 99.464C784.784 98.8667 783.93 98.2267 783.077 97.544C782.224 96.8613 781.456 96.904 780.773 97.672C780.09 98.3547 779.578 99.7627 779.237 101.896H776.293C776.464 99.1653 776.592 95.8373 776.677 91.912C776.762 87.9867 776.805 82.7813 776.805 76.296H779.749C780.346 81.0747 781.2 85.256 782.309 88.84C783.418 92.424 785.168 95.24 787.557 97.288C789.946 99.2507 793.274 100.232 797.541 100.232C799.248 100.232 800.954 99.848 802.661 99.08C804.453 98.312 805.946 97.032 807.141 95.24C808.336 93.448 808.933 91.0587 808.933 88.072C808.933 84.3173 807.568 81.2453 804.837 78.856C802.106 76.4667 798.65 73.9493 794.469 71.304C791.397 69.3413 788.496 67.3787 785.765 65.416C783.12 63.4533 780.944 61.2347 779.237 58.76C777.616 56.2853 776.805 53.2987 776.805 49.8C776.805 45.96 777.658 42.8453 779.365 40.456C781.157 37.9813 783.504 36.1893 786.405 35.08C789.306 33.8853 792.421 33.288 795.749 33.288Z" fill="black"/>
</svg>
