<svg width="610" height="126" viewBox="0 0 610 126" fill="none" xmlns="http://www.w3.org/2000/svg">
<path d="M24.768 8.96799C29.0347 8.96799 32.2773 9.48 34.496 10.504C36.7147 11.4427 38.6773 12.5093 40.384 13.704C41.408 14.3013 42.2187 14.7707 42.816 15.112C43.4987 15.368 44.1387 15.496 44.736 15.496C45.5893 15.496 46.1867 15.0267 46.528 14.088C46.9547 13.1493 47.296 11.7413 47.552 9.864H50.496C50.4107 11.3147 50.2827 13.064 50.112 15.112C50.0267 17.0747 49.9413 19.72 49.856 23.048C49.856 26.2907 49.856 30.6 49.856 35.976H46.912C46.656 31.88 45.76 27.9547 44.224 24.2C42.688 20.4453 40.4267 17.3733 37.44 14.984C34.5387 12.5947 30.6987 11.4 25.92 11.4C21.3973 11.4 17.6427 12.7653 14.656 15.496C11.7547 18.2267 10.304 21.8107 10.304 26.248C10.304 30.088 11.2853 33.3307 13.248 35.976C15.2107 38.536 17.8133 40.8827 21.056 43.016C24.384 45.064 27.968 47.2827 31.808 49.672C36.2453 52.4027 40.1707 55.1333 43.584 57.864C47.0827 60.5093 49.8133 63.4533 51.776 66.696C53.824 69.9387 54.848 73.864 54.848 78.472C54.848 83.9333 53.6107 88.456 51.136 92.04C48.6613 95.624 45.376 98.312 41.28 100.104C37.184 101.896 32.6613 102.792 27.712 102.792C23.1893 102.792 19.6053 102.28 16.96 101.256C14.3147 100.232 12.0533 99.1653 10.176 98.056C8.29867 96.8613 6.848 96.264 5.824 96.264C4.97067 96.264 4.33067 96.7333 3.904 97.672C3.56267 98.6107 3.264 100.019 3.008 101.896H0.0640001C0.234667 100.104 0.320001 98.0133 0.320001 95.624C0.405334 93.1493 0.448 89.9493 0.448 86.024C0.533333 82.0987 0.576 77.1493 0.576 71.176H3.52C3.86133 76.296 4.8 81.0747 6.336 85.512C7.95733 89.9493 10.3893 93.5333 13.632 96.264C16.96 98.9093 21.3547 100.232 26.816 100.232C29.632 100.232 32.2773 99.6773 34.752 98.568C37.312 97.3733 39.4027 95.5387 41.024 93.064C42.6453 90.504 43.456 87.2187 43.456 83.208C43.456 79.7093 42.6027 76.68 40.896 74.12C39.2747 71.4747 36.9707 69.0427 33.984 66.824C30.9973 64.52 27.4987 62.1733 23.488 59.784C19.4773 57.3093 15.7227 54.792 12.224 52.232C8.72533 49.672 5.90933 46.728 3.776 43.4C1.728 39.9867 0.704 35.8907 0.704 31.112C0.704 26.0773 1.81333 21.9387 4.032 18.696C6.336 15.368 9.32267 12.936 12.992 11.4C16.6613 9.77866 20.5867 8.96799 24.768 8.96799ZM122.949 33.672V87.176C122.949 91.016 123.632 93.8747 124.997 95.752C126.448 97.544 129.008 98.44 132.677 98.44V101.128C130.032 100.872 127.386 100.744 124.741 100.744C122.266 100.744 119.877 100.872 117.573 101.128C115.354 101.384 113.306 101.853 111.429 102.536V87.432C109.296 92.9787 106.266 96.9467 102.341 99.336C98.501 101.64 94.533 102.792 90.437 102.792C87.4503 102.792 84.8477 102.365 82.629 101.512C80.4103 100.659 78.5757 99.464 77.125 97.928C75.5037 96.2213 74.3943 94.0027 73.797 91.272C73.1997 88.5413 72.901 85.1707 72.901 81.16V49.032C72.901 45.192 72.2183 42.376 70.853 40.584C69.4877 38.7067 66.9277 37.768 63.173 37.768V35.08C65.9037 35.336 68.549 35.464 71.109 35.464C73.5837 35.464 75.9303 35.336 78.149 35.08C80.453 34.7387 82.5437 34.2693 84.421 33.672V83.976C84.421 86.6213 84.5917 89.0533 84.933 91.272C85.2743 93.4907 86.1277 95.2827 87.493 96.648C88.8583 98.0133 91.077 98.696 94.149 98.696C97.477 98.696 100.421 97.672 102.981 95.624C105.626 93.576 107.674 90.8027 109.125 87.304C110.661 83.8053 111.429 79.88 111.429 75.528V49.032C111.429 45.192 110.746 42.376 109.381 40.584C108.016 38.7067 105.456 37.768 101.701 37.768V35.08C104.432 35.336 107.077 35.464 109.637 35.464C112.112 35.464 114.458 35.336 116.677 35.08C118.981 34.7387 121.072 34.2693 122.949 33.672ZM182.22 33.288C185.463 33.288 188.151 33.7147 190.284 34.568C192.503 35.4213 194.337 36.616 195.788 38.152C197.409 39.8587 198.561 41.992 199.244 44.552C199.927 47.112 200.268 50.568 200.268 54.92V89.096C200.268 92.68 200.993 95.112 202.444 96.392C203.98 97.672 206.497 98.312 209.996 98.312V101C208.545 100.915 206.327 100.829 203.34 100.744C200.353 100.573 197.452 100.488 194.636 100.488C191.82 100.488 189.047 100.573 186.316 100.744C183.671 100.829 181.665 100.915 180.3 101V98.312C183.372 98.312 185.548 97.672 186.828 96.392C188.108 95.112 188.748 92.68 188.748 89.096V52.104C188.748 49.4587 188.535 47.0267 188.108 44.808C187.681 42.5893 186.7 40.7973 185.164 39.432C183.713 38.0667 181.452 37.384 178.38 37.384C174.796 37.384 171.639 38.408 168.908 40.456C166.263 42.504 164.172 45.32 162.636 48.904C161.185 52.4027 160.46 56.328 160.46 60.68V89.096C160.46 92.68 161.1 95.112 162.38 96.392C163.66 97.672 165.836 98.312 168.908 98.312V101C167.543 100.915 165.495 100.829 162.764 100.744C160.119 100.573 157.388 100.488 154.572 100.488C151.756 100.488 148.855 100.573 145.868 100.744C142.881 100.829 140.663 100.915 139.212 101V98.312C142.711 98.312 145.185 97.672 146.636 96.392C148.172 95.112 148.94 92.68 148.94 89.096V49.032C148.94 45.192 148.257 42.376 146.892 40.584C145.527 38.7067 142.967 37.768 139.212 37.768V35.08C141.943 35.336 144.588 35.464 147.148 35.464C149.623 35.464 151.969 35.336 154.188 35.08C156.492 34.7387 158.583 34.2693 160.46 33.672V48.776C162.679 42.9733 165.751 38.9627 169.676 36.744C173.687 34.44 177.868 33.288 182.22 33.288ZM237.889 125.064C233.366 125.064 229.1 124.595 225.089 123.656C221.078 122.717 217.836 121.224 215.361 119.176C212.972 117.213 211.777 114.696 211.777 111.624C211.777 108.637 212.972 106.077 215.361 103.944C217.75 101.811 220.993 100.189 225.089 99.08L225.857 101.128C223.98 101.725 222.486 102.92 221.377 104.712C220.268 106.504 219.713 108.509 219.713 110.728C219.713 114.653 221.505 117.64 225.089 119.688C228.758 121.821 233.494 122.888 239.297 122.888C243.137 122.888 246.892 122.376 250.561 121.352C254.23 120.413 257.26 118.792 259.649 116.488C262.038 114.184 263.233 111.155 263.233 107.4C263.233 104.584 262.209 102.28 260.161 100.488C258.198 98.6107 254.273 97.672 248.385 97.672H238.913C236.182 97.672 233.537 97.4587 230.977 97.032C228.417 96.6053 226.326 95.7093 224.705 94.344C223.084 92.9787 222.273 90.888 222.273 88.072C222.273 85.1707 223.468 82.3973 225.857 79.752C228.246 77.0213 232.641 74.248 239.041 71.432L240.577 72.584C237.676 74.12 235.158 75.6987 233.025 77.32C230.892 78.856 229.825 80.6907 229.825 82.824C229.825 85.5547 231.873 86.92 235.969 86.92H251.969C255.553 86.92 258.838 87.432 261.825 88.456C264.897 89.48 267.372 91.1013 269.249 93.32C271.126 95.5387 272.065 98.44 272.065 102.024C272.065 106.035 270.785 109.789 268.225 113.288C265.665 116.787 261.825 119.603 256.705 121.736C251.67 123.955 245.398 125.064 237.889 125.064ZM238.529 73.736C234.348 73.736 230.55 73.0533 227.137 71.688C223.724 70.2373 221.036 68.0187 219.073 65.032C217.11 62.0453 216.129 58.2053 216.129 53.512C216.129 48.8187 217.11 44.9787 219.073 41.992C221.036 39.0053 223.724 36.8293 227.137 35.464C230.55 34.0133 234.348 33.288 238.529 33.288C242.796 33.288 246.593 34.0133 249.921 35.464C253.334 36.8293 256.022 39.0053 257.985 41.992C259.948 44.9787 260.929 48.8187 260.929 53.512C260.929 58.2053 259.948 62.0453 257.985 65.032C256.022 68.0187 253.334 70.2373 249.921 71.688C246.593 73.0533 242.796 73.736 238.529 73.736ZM238.529 71.432C241.772 71.432 244.289 70.152 246.081 67.592C247.958 65.032 248.897 60.3387 248.897 53.512C248.897 46.6853 247.958 41.992 246.081 39.432C244.289 36.872 241.772 35.592 238.529 35.592C235.372 35.592 232.854 36.872 230.977 39.432C229.1 41.992 228.161 46.6853 228.161 53.512C228.161 60.3387 229.1 65.032 230.977 67.592C232.854 70.152 235.372 71.432 238.529 71.432ZM256.961 43.912L254.657 43.016C255.852 40.1147 257.9 37.5547 260.801 35.336C263.702 33.1173 266.732 32.008 269.889 32.008C272.108 32.008 273.9 32.648 275.265 33.928C276.63 35.1227 277.313 36.9573 277.313 39.432C277.313 42.0773 276.588 43.9547 275.137 45.064C273.772 46.088 272.364 46.6 270.913 46.6C269.633 46.6 268.438 46.1733 267.329 45.32C266.22 44.3813 265.58 42.9307 265.409 40.968C265.238 39.0053 265.836 36.488 267.201 33.416L268.865 33.8C265.281 35.1653 262.721 36.616 261.185 38.152C259.649 39.6027 258.241 41.5227 256.961 43.912ZM302.314 0.647995V89.096C302.314 92.68 303.039 95.112 304.49 96.392C306.026 97.672 308.543 98.312 312.042 98.312V101C310.591 100.915 308.373 100.829 305.386 100.744C302.485 100.573 299.541 100.488 296.554 100.488C293.653 100.488 290.709 100.573 287.722 100.744C284.735 100.829 282.517 100.915 281.066 101V98.312C284.565 98.312 287.039 97.672 288.49 96.392C290.026 95.112 290.794 92.68 290.794 89.096V16.008C290.794 12.168 290.111 9.35199 288.746 7.56C287.381 5.68266 284.821 4.744 281.066 4.744V2.05599C283.797 2.31199 286.442 2.43999 289.002 2.43999C291.477 2.43999 293.823 2.31199 296.042 2.05599C298.346 1.71466 300.437 1.24533 302.314 0.647995ZM336.763 101.896C333.264 101.896 330.235 101.256 327.675 99.976C325.115 98.6107 323.152 96.7333 321.787 94.344C320.507 91.9547 319.867 89.1813 319.867 86.024C319.867 82.2693 320.72 79.1973 322.427 76.808C324.219 74.4187 326.48 72.4987 329.211 71.048C331.942 69.5973 334.8 68.4027 337.787 67.464C340.859 66.44 343.76 65.5013 346.491 64.648C349.222 63.7093 351.44 62.6427 353.147 61.448C354.939 60.2533 355.835 58.6747 355.835 56.712V48.776C355.835 45.192 355.28 42.4613 354.171 40.584C353.147 38.7067 351.739 37.4693 349.947 36.872C348.155 36.1893 346.15 35.848 343.931 35.848C341.798 35.848 339.494 36.1467 337.019 36.744C334.63 37.3413 332.71 38.5787 331.259 40.456C332.88 40.7973 334.288 41.6507 335.483 43.016C336.678 44.3813 337.275 46.1307 337.275 48.264C337.275 50.3973 336.592 52.104 335.227 53.384C333.862 54.5787 332.112 55.176 329.979 55.176C327.504 55.176 325.67 54.408 324.475 52.872C323.366 51.2507 322.811 49.4587 322.811 47.496C322.811 45.2773 323.366 43.4853 324.475 42.12C325.584 40.7547 326.992 39.4747 328.699 38.28C330.662 36.9147 333.179 35.7627 336.251 34.824C339.408 33.8 342.95 33.288 346.875 33.288C350.374 33.288 353.36 33.7147 355.835 34.568C358.31 35.336 360.358 36.488 361.979 38.024C364.198 40.072 365.648 42.5893 366.331 45.576C367.014 48.4773 367.355 51.976 367.355 56.072V91.656C367.355 93.7893 367.654 95.3253 368.251 96.264C368.934 97.2027 369.958 97.672 371.323 97.672C372.262 97.672 373.158 97.4587 374.011 97.032C374.864 96.6053 375.888 95.9227 377.083 94.984L378.491 97.16C376.699 98.5253 374.992 99.6773 373.371 100.616C371.75 101.469 369.574 101.896 366.843 101.896C364.368 101.896 362.32 101.469 360.699 100.616C359.078 99.7627 357.84 98.5253 356.987 96.904C356.219 95.1973 355.835 93.064 355.835 90.504C353.531 94.344 350.758 97.2027 347.515 99.08C344.358 100.957 340.774 101.896 336.763 101.896ZM341.371 96.776C344.187 96.776 346.79 95.9653 349.179 94.344C351.654 92.7227 353.872 90.2907 355.835 87.048V61.96C354.811 63.4107 353.318 64.648 351.355 65.672C349.392 66.6107 347.259 67.592 344.955 68.616C342.651 69.5547 340.432 70.7067 338.299 72.072C336.251 73.352 334.544 75.0587 333.179 77.192C331.814 79.3253 331.131 82.0987 331.131 85.512C331.131 88.9253 332.027 91.656 333.819 93.704C335.696 95.752 338.214 96.776 341.371 96.776ZM405.249 33.288C408.662 33.288 411.564 33.8427 413.953 34.952C416.342 36.0613 418.092 37.0853 419.201 38.024C422.017 40.328 423.724 38.792 424.321 33.416H427.265C427.094 35.8053 426.966 38.664 426.881 41.992C426.796 45.2347 426.753 49.6293 426.753 55.176H423.809C423.297 52.0187 422.401 48.9467 421.121 45.96C419.926 42.9733 418.134 40.5413 415.745 38.664C413.356 36.7013 410.241 35.72 406.401 35.72C403.414 35.72 400.897 36.5733 398.849 38.28C396.886 39.9013 395.905 42.3333 395.905 45.576C395.905 48.136 396.673 50.3547 398.209 52.232C399.745 54.024 401.75 55.7307 404.225 57.352C406.7 58.888 409.388 60.5947 412.289 62.472C415.532 64.52 418.476 66.6107 421.121 68.744C423.766 70.8773 425.857 73.224 427.393 75.784C429.014 78.344 429.825 81.3733 429.825 84.872C429.825 88.7973 428.801 92.0827 426.753 94.728C424.705 97.3733 422.017 99.3787 418.689 100.744C415.446 102.109 411.862 102.792 407.937 102.792C406.06 102.792 404.268 102.621 402.561 102.28C400.94 102.024 399.361 101.597 397.825 101C396.972 100.573 396.076 100.061 395.137 99.464C394.284 98.8667 393.43 98.2267 392.577 97.544C391.724 96.8613 390.956 96.904 390.273 97.672C389.59 98.3547 389.078 99.7627 388.737 101.896H385.793C385.964 99.1653 386.092 95.8373 386.177 91.912C386.262 87.9867 386.305 82.7813 386.305 76.296H389.249C389.846 81.0747 390.7 85.256 391.809 88.84C392.918 92.424 394.668 95.24 397.057 97.288C399.446 99.2507 402.774 100.232 407.041 100.232C408.748 100.232 410.454 99.848 412.161 99.08C413.953 98.312 415.446 97.032 416.641 95.24C417.836 93.448 418.433 91.0587 418.433 88.072C418.433 84.3173 417.068 81.2453 414.337 78.856C411.606 76.4667 408.15 73.9493 403.969 71.304C400.897 69.3413 397.996 67.3787 395.265 65.416C392.62 63.4533 390.444 61.2347 388.737 58.76C387.116 56.2853 386.305 53.2987 386.305 49.8C386.305 45.96 387.158 42.8453 388.865 40.456C390.657 37.9813 393.004 36.1893 395.905 35.08C398.806 33.8853 401.921 33.288 405.249 33.288ZM462.499 33.288C465.912 33.288 468.814 33.8427 471.203 34.952C473.592 36.0613 475.342 37.0853 476.451 38.024C479.267 40.328 480.974 38.792 481.571 33.416H484.515C484.344 35.8053 484.216 38.664 484.131 41.992C484.046 45.2347 484.003 49.6293 484.003 55.176H481.059C480.547 52.0187 479.651 48.9467 478.371 45.96C477.176 42.9733 475.384 40.5413 472.995 38.664C470.606 36.7013 467.491 35.72 463.651 35.72C460.664 35.72 458.147 36.5733 456.099 38.28C454.136 39.9013 453.155 42.3333 453.155 45.576C453.155 48.136 453.923 50.3547 455.459 52.232C456.995 54.024 459 55.7307 461.475 57.352C463.95 58.888 466.638 60.5947 469.539 62.472C472.782 64.52 475.726 66.6107 478.371 68.744C481.016 70.8773 483.107 73.224 484.643 75.784C486.264 78.344 487.075 81.3733 487.075 84.872C487.075 88.7973 486.051 92.0827 484.003 94.728C481.955 97.3733 479.267 99.3787 475.939 100.744C472.696 102.109 469.112 102.792 465.187 102.792C463.31 102.792 461.518 102.621 459.811 102.28C458.19 102.024 456.611 101.597 455.075 101C454.222 100.573 453.326 100.061 452.387 99.464C451.534 98.8667 450.68 98.2267 449.827 97.544C448.974 96.8613 448.206 96.904 447.523 97.672C446.84 98.3547 446.328 99.7627 445.987 101.896H443.043C443.214 99.1653 443.342 95.8373 443.427 91.912C443.512 87.9867 443.555 82.7813 443.555 76.296H446.499C447.096 81.0747 447.95 85.256 449.059 88.84C450.168 92.424 451.918 95.24 454.307 97.288C456.696 99.2507 460.024 100.232 464.291 100.232C465.998 100.232 467.704 99.848 469.411 99.08C471.203 98.312 472.696 97.032 473.891 95.24C475.086 93.448 475.683 91.0587 475.683 88.072C475.683 84.3173 474.318 81.2453 471.587 78.856C468.856 76.4667 465.4 73.9493 461.219 71.304C458.147 69.3413 455.246 67.3787 452.515 65.416C449.87 63.4533 447.694 61.2347 445.987 58.76C444.366 56.2853 443.555 53.2987 443.555 49.8C443.555 45.96 444.408 42.8453 446.115 40.456C447.907 37.9813 450.254 36.1893 453.155 35.08C456.056 33.8853 459.171 33.288 462.499 33.288ZM527.941 33.288C535.45 33.288 541.296 35.592 545.477 40.2C549.744 44.7227 551.877 51.8053 551.877 61.448H506.693L506.565 59.016H539.589C539.76 54.8347 539.418 50.9947 538.565 47.496C537.712 43.912 536.346 41.0533 534.469 38.92C532.677 36.7867 530.33 35.72 527.429 35.72C523.504 35.72 520.005 37.6827 516.933 41.608C513.946 45.5333 512.154 51.7627 511.557 60.296L511.941 60.808C511.77 62.088 511.642 63.496 511.557 65.032C511.472 66.568 511.429 68.104 511.429 69.64C511.429 75.4427 512.368 80.4347 514.245 84.616C516.122 88.7973 518.554 91.9973 521.541 94.216C524.613 96.3493 527.77 97.416 531.013 97.416C533.573 97.416 536.005 97.032 538.309 96.264C540.613 95.4107 542.746 94.0453 544.709 92.168C546.672 90.2907 548.378 87.7733 549.829 84.616L552.389 85.64C551.45 88.456 549.914 91.1867 547.781 93.832C545.648 96.4773 542.96 98.6533 539.717 100.36C536.474 101.981 532.72 102.792 528.453 102.792C522.309 102.792 517.018 101.384 512.581 98.568C508.229 95.752 504.858 91.8693 502.469 86.92C500.165 81.8853 499.013 76.1253 499.013 69.64C499.013 62.1307 500.208 55.688 502.597 50.312C504.986 44.8507 508.357 40.6693 512.709 37.768C517.061 34.7813 522.138 33.288 527.941 33.288ZM584.499 33.288C587.912 33.288 590.814 33.8427 593.203 34.952C595.592 36.0613 597.342 37.0853 598.451 38.024C601.267 40.328 602.974 38.792 603.571 33.416H606.515C606.344 35.8053 606.216 38.664 606.131 41.992C606.046 45.2347 606.003 49.6293 606.003 55.176H603.059C602.547 52.0187 601.651 48.9467 600.371 45.96C599.176 42.9733 597.384 40.5413 594.995 38.664C592.606 36.7013 589.491 35.72 585.651 35.72C582.664 35.72 580.147 36.5733 578.099 38.28C576.136 39.9013 575.155 42.3333 575.155 45.576C575.155 48.136 575.923 50.3547 577.459 52.232C578.995 54.024 581 55.7307 583.475 57.352C585.95 58.888 588.638 60.5947 591.539 62.472C594.782 64.52 597.726 66.6107 600.371 68.744C603.016 70.8773 605.107 73.224 606.643 75.784C608.264 78.344 609.075 81.3733 609.075 84.872C609.075 88.7973 608.051 92.0827 606.003 94.728C603.955 97.3733 601.267 99.3787 597.939 100.744C594.696 102.109 591.112 102.792 587.187 102.792C585.31 102.792 583.518 102.621 581.811 102.28C580.19 102.024 578.611 101.597 577.075 101C576.222 100.573 575.326 100.061 574.387 99.464C573.534 98.8667 572.68 98.2267 571.827 97.544C570.974 96.8613 570.206 96.904 569.523 97.672C568.84 98.3547 568.328 99.7627 567.987 101.896H565.043C565.214 99.1653 565.342 95.8373 565.427 91.912C565.512 87.9867 565.555 82.7813 565.555 76.296H568.499C569.096 81.0747 569.95 85.256 571.059 88.84C572.168 92.424 573.918 95.24 576.307 97.288C578.696 99.2507 582.024 100.232 586.291 100.232C587.998 100.232 589.704 99.848 591.411 99.08C593.203 98.312 594.696 97.032 595.891 95.24C597.086 93.448 597.683 91.0587 597.683 88.072C597.683 84.3173 596.318 81.2453 593.587 78.856C590.856 76.4667 587.4 73.9493 583.219 71.304C580.147 69.3413 577.246 67.3787 574.515 65.416C571.87 63.4533 569.694 61.2347 567.987 58.76C566.366 56.2853 565.555 53.2987 565.555 49.8C565.555 45.96 566.408 42.8453 568.115 40.456C569.907 37.9813 572.254 36.1893 575.155 35.08C578.056 33.8853 581.171 33.288 584.499 33.288Z" fill="black"/>
</svg>
